# This file uses centimeters as units for non-parametric coordinates.

mtllib Pilar.mtl
g default
v -67.231386 5.293708 93.792289
v -69.412812 5.293708 91.610851
v -72.392699 5.293708 90.812396
v -75.372598 5.293708 91.610851
v -77.554019 5.293708 93.792289
v -78.352480 5.293708 96.772177
v -77.554019 5.293708 99.752064
v -75.372598 5.293708 101.933496
v -72.392699 5.293708 102.731951
v -69.412812 5.293708 101.933496
v -67.231386 5.293708 99.752064
v -66.432925 5.293708 96.772177
v -67.231386 86.196139 93.792289
v -69.412812 86.196139 91.610851
v -72.392699 82.302946 90.812396
v -75.372598 79.533230 91.610851
v -77.554019 86.196139 93.792289
v -78.352480 86.196139 96.772177
v -77.554019 86.196139 99.752064
v -75.372598 86.196139 101.933496
v -72.392699 86.196139 102.731951
v -69.412812 86.196139 101.933496
v -67.231386 86.196139 99.752064
v -66.432925 86.196139 96.772177
v -72.392699 5.293708 96.772177
v -72.392699 86.196139 96.772177
v -67.231386 12.693295 93.792289
v -66.432925 12.693295 96.772177
v -67.231386 12.693295 99.752064
v -69.412812 12.693295 101.933496
v -72.392699 12.693295 102.731951
v -75.372598 12.693295 101.933496
v -77.554019 12.693295 99.752064
v -78.352480 12.693295 96.772177
v -77.554019 12.693295 93.792289
v -75.372598 12.693295 91.610851
v -72.392699 12.693295 90.812396
v -69.412812 12.693295 91.610851
v -65.185282 5.293708 92.610975
v -68.231498 5.293708 89.564753
v -68.231498 12.693295 89.564753
v -65.185282 12.693295 92.610975
v -72.392699 5.293708 88.449762
v -72.392699 12.693295 88.449762
v -76.553901 5.293708 89.564753
v -76.553901 12.693295 89.564753
v -79.600123 5.293708 92.610975
v -79.600123 12.693295 92.610975
v -80.715119 5.293708 96.772177
v -80.715119 12.693295 96.772177
v -79.600123 5.293708 100.933372
v -79.600123 12.693295 100.933372
v -76.553901 5.293708 103.979600
v -76.553901 12.693295 103.979600
v -72.392699 5.293708 105.094591
v -72.392699 12.693295 105.094591
v -68.231498 5.293708 103.979600
v -68.231498 12.693295 103.979600
v -65.185282 5.293708 100.933372
v -65.185282 12.693295 100.933372
v -64.070291 5.293708 96.772177
v -64.070291 12.693295 96.772177
v -67.231386 79.680632 93.792289
v -66.432925 80.754926 96.772177
v -67.231386 79.579635 99.752064
v -69.412812 76.469701 101.933496
v -72.392699 72.258401 102.731951
v -75.372598 68.074178 101.933496
v -77.554019 65.038174 99.752075
v -78.352480 63.963875 96.772177
v -77.554019 65.139192 93.792289
v -75.372598 68.249131 91.610851
v -72.392699 72.460415 90.812390
v -69.412812 76.644643 91.610851
v -67.231386 73.548455 93.792289
v -66.432925 72.281761 96.772177
v -67.231386 71.398041 99.752064
v -69.412812 71.134063 101.933496
v -72.392699 71.560570 102.731951
v -69.412812 74.858678 91.610851
v -75.372598 72.563292 101.933496
v -77.554019 73.873509 99.752075
v -78.352480 75.140214 96.772177
v -77.554019 76.023940 93.792289
v -75.372598 76.287902 91.610851
v -72.392699 75.861389 90.812396
v -72.793604 71.695465 102.624530
v -70.438853 75.203931 91.335926
v -68.231264 74.213372 94.410622
v -67.798786 73.298192 96.845229
v -68.231264 78.643831 94.410622
v -67.798786 79.420001 96.845229
v -68.231264 72.659710 99.279837
v -68.231264 78.570862 99.279837
v -69.412812 72.468990 101.062096
v -69.412812 76.323953 101.062096
v -71.026838 72.777139 101.714444
v -71.026838 73.281317 101.714444
v -69.412812 75.159999 92.628358
v -69.412812 76.450347 92.628358
vt 0.635316 0.078125
vt 0.578125 0.020934
vt 0.500000 0.000000
vt 0.421875 0.020934
vt 0.364684 0.078125
vt 0.343750 0.156250
vt 0.364684 0.234375
vt 0.421875 0.291566
vt 0.500000 0.312500
vt 0.578125 0.291566
vt 0.635316 0.234375
vt 0.656250 0.156250
vt 0.375000 0.312500
vt 0.395833 0.312500
vt 0.416667 0.312500
vt 0.437500 0.312500
vt 0.458333 0.312500
vt 0.479167 0.312500
vt 0.500000 0.312500
vt 0.520833 0.312500
vt 0.541667 0.312500
vt 0.562500 0.312500
vt 0.583333 0.312500
vt 0.604167 0.312500
vt 0.625000 0.312500
vt 0.375000 0.687500
vt 0.395833 0.687500
vt 0.416667 0.687500
vt 0.437500 0.687500
vt 0.458333 0.687500
vt 0.479167 0.687500
vt 0.500000 0.687500
vt 0.520833 0.687500
vt 0.541667 0.687500
vt 0.562500 0.687500
vt 0.583333 0.687500
vt 0.604167 0.687500
vt 0.625000 0.687500
vt 0.635316 0.765625
vt 0.578125 0.708434
vt 0.500000 0.687500
vt 0.421875 0.708434
vt 0.364684 0.765625
vt 0.343750 0.843750
vt 0.364684 0.921875
vt 0.421875 0.979066
vt 0.500000 1.000000
vt 0.578125 0.979066
vt 0.635316 0.921875
vt 0.656250 0.843750
vt 0.500000 0.156250
vt 0.500000 0.843750
vt 0.625000 0.343999
vt 0.375000 0.343999
vt 0.604167 0.343999
vt 0.583333 0.343999
vt 0.562500 0.343999
vt 0.541667 0.343999
vt 0.520833 0.343999
vt 0.500000 0.343999
vt 0.479167 0.343999
vt 0.458333 0.343999
vt 0.437500 0.343999
vt 0.416667 0.343999
vt 0.395833 0.343999
vt 0.375000 0.312500
vt 0.395833 0.312500
vt 0.395833 0.343999
vt 0.375000 0.343999
vt 0.416667 0.312500
vt 0.416667 0.343999
vt 0.437500 0.312500
vt 0.437500 0.343999
vt 0.458333 0.312500
vt 0.458333 0.343999
vt 0.479167 0.312500
vt 0.479167 0.343999
vt 0.500000 0.312500
vt 0.500000 0.343999
vt 0.520833 0.312500
vt 0.520833 0.343999
vt 0.541667 0.312500
vt 0.541667 0.343999
vt 0.562500 0.312500
vt 0.562500 0.343999
vt 0.583333 0.312500
vt 0.583333 0.343999
vt 0.604167 0.312500
vt 0.604167 0.343999
vt 0.625000 0.312500
vt 0.625000 0.343999
vt 0.625000 0.659764
vt 0.375000 0.659764
vt 0.604167 0.664337
vt 0.583333 0.659334
vt 0.562500 0.646095
vt 0.541667 0.628168
vt 0.520833 0.610356
vt 0.500000 0.597432
vt 0.479167 0.592859
vt 0.458333 0.597862
vt 0.437500 0.611101
vt 0.416667 0.629028
vt 0.395833 0.646840
vt 0.625000 0.633660
vt 0.375000 0.633660
vt 0.604167 0.628268
vt 0.583333 0.624506
vt 0.562500 0.623382
vt 0.541667 0.625198
vt 0.395833 0.639237
vt 0.520833 0.629466
vt 0.500000 0.635044
vt 0.479167 0.640436
vt 0.458333 0.644198
vt 0.437500 0.645321
vt 0.416667 0.643506
vt 0.538864 0.625772
vt 0.403007 0.640707
vt 0.604167 0.628268
vt 0.625000 0.633660
vt 0.625000 0.659764
vt 0.604167 0.664337
vt 0.583333 0.624506
vt 0.583333 0.659334
vt 0.562500 0.623382
vt 0.562500 0.646095
vt 0.541667 0.625198
vt 0.541667 0.628168
vt 0.375000 0.633660
vt 0.395833 0.639237
vt 0.395833 0.646840
vt 0.375000 0.659764
vn 0.707107 0.000000 -0.707106
vn 0.707107 0.000000 -0.707106
vn 0.707107 0.000000 -0.707106
vn 0.707107 0.000000 -0.707106
vn 0.258819 0.000000 -0.965926
vn 0.258819 0.000000 -0.965926
vn 0.258819 0.000000 -0.965926
vn 0.258819 0.000000 -0.965926
vn -0.258819 0.000000 -0.965926
vn -0.258819 0.000000 -0.965926
vn -0.258819 0.000000 -0.965926
vn -0.258819 0.000000 -0.965926
vn -0.707107 0.000000 -0.707107
vn -0.707107 0.000000 -0.707107
vn -0.707107 0.000000 -0.707107
vn -0.707107 0.000000 -0.707107
vn -0.965926 0.000000 -0.258820
vn -0.965926 0.000000 -0.258820
vn -0.965926 0.000000 -0.258820
vn -0.965926 0.000000 -0.258820
vn -0.965925 0.000000 0.258821
vn -0.965925 0.000000 0.258821
vn -0.965925 0.000000 0.258821
vn -0.965925 0.000000 0.258821
vn -0.707107 0.000000 0.707106
vn -0.707107 0.000000 0.707106
vn -0.707107 0.000000 0.707106
vn -0.707107 0.000000 0.707106
vn -0.258819 0.000000 0.965926
vn -0.258819 0.000000 0.965926
vn -0.258819 0.000000 0.965926
vn -0.258819 0.000000 0.965926
vn 0.258819 0.000000 0.965926
vn 0.258819 0.000000 0.965926
vn 0.258819 0.000000 0.965926
vn 0.258819 0.000000 0.965926
vn 0.707108 0.000000 0.707105
vn 0.707108 0.000000 0.707105
vn 0.707108 0.000000 0.707105
vn 0.707108 0.000000 0.707105
vn 0.965926 0.000000 0.258819
vn 0.965926 0.000000 0.258819
vn 0.965926 0.000000 0.258819
vn 0.965926 0.000000 0.258819
vn 0.965926 0.000000 -0.258819
vn 0.965926 0.000000 -0.258819
vn 0.965926 0.000000 -0.258819
vn 0.965926 0.000000 -0.258819
vn 0.000000 -1.000000 -0.000001
vn 0.000000 -1.000000 -0.000001
vn 0.000000 -1.000000 -0.000000
vn 0.000000 -1.000000 0.000000
vn 0.000000 -1.000000 0.000000
vn 0.000000 -1.000000 0.000000
vn 0.000000 -1.000000 0.000000
vn 0.000000 -1.000000 0.000001
vn 0.000000 -1.000000 0.000001
vn 0.000000 -1.000000 0.000000
vn 0.000000 -1.000000 0.000000
vn 0.000000 -1.000000 0.000000
vn 0.000000 -1.000000 0.000000
vn 0.000000 1.000000 0.000000
vn -0.474111 0.836835 -0.273727
vn -0.086966 0.960381 -0.264773
vn -0.683306 0.611267 -0.399307
vn -0.000146 0.612432 -0.790523
vn 0.373345 0.665173 -0.646652
vn 0.000000 1.000000 0.000000
vn 0.000000 1.000000 -0.000001
vn 0.000000 1.000000 -0.000001
vn 0.000000 1.000000 0.000000
vn 0.000000 1.000000 0.000000
vn 0.000000 1.000000 0.000000
vn 0.000000 1.000000 0.000000
vn 0.965926 0.000000 -0.258820
vn 0.965926 0.000000 -0.258820
vn 0.965926 0.000000 -0.258820
vn 0.965926 0.000000 -0.258820
vn 0.965926 0.000000 0.258820
vn 0.965926 0.000000 0.258820
vn 0.965926 0.000000 0.258820
vn 0.965926 0.000000 0.258820
vn 0.707108 0.000000 0.707106
vn 0.707108 0.000000 0.707106
vn 0.707108 0.000000 0.707106
vn 0.707108 0.000000 0.707106
vn 0.258818 0.000000 0.965926
vn 0.258818 0.000000 0.965926
vn 0.258818 0.000000 0.965926
vn 0.258818 0.000000 0.965926
vn -0.258817 0.000000 0.965926
vn -0.258817 0.000000 0.965926
vn -0.258817 0.000000 0.965926
vn -0.258817 0.000000 0.965926
vn -0.258817 0.000000 0.965926
vn -0.707108 -0.000000 0.707106
vn -0.707108 -0.000000 0.707106
vn -0.707108 -0.000000 0.707106
vn -0.707108 -0.000000 0.707106
vn -0.965926 -0.000000 0.258819
vn -0.965926 -0.000000 0.258819
vn -0.965926 -0.000000 0.258819
vn -0.965926 -0.000000 0.258819
vn -0.965926 0.000000 -0.258820
vn -0.965926 0.000000 -0.258820
vn -0.965926 0.000000 -0.258820
vn -0.965926 0.000000 -0.258820
vn -0.707110 0.000000 -0.707104
vn -0.707110 0.000000 -0.707104
vn -0.707110 0.000000 -0.707104
vn -0.707110 0.000000 -0.707104
vn -0.258818 -0.000000 -0.965926
vn -0.258818 -0.000000 -0.965926
vn -0.258818 -0.000000 -0.965926
vn -0.258818 0.000000 -0.965926
vn 0.258819 -0.000000 -0.965926
vn 0.258819 -0.000000 -0.965926
vn 0.258819 -0.000000 -0.965926
vn 0.258819 -0.000000 -0.965926
vn 0.258819 -0.000000 -0.965926
vn 0.707109 0.000000 -0.707105
vn 0.707109 0.000000 -0.707105
vn 0.707109 0.000000 -0.707105
vn 0.707109 0.000000 -0.707105
vn 0.000000 -1.000000 0.000001
vn 0.000000 -1.000000 0.000001
vn 0.000000 -1.000000 0.000001
vn 0.000000 -1.000000 0.000001
vn 0.000000 1.000000 -0.000001
vn 0.000000 1.000000 -0.000001
vn 0.000000 1.000000 -0.000001
vn 0.000000 1.000000 -0.000001
vn 0.000000 -1.000000 -0.000001
vn 0.000000 -1.000000 -0.000001
vn 0.000000 -1.000000 -0.000001
vn 0.000000 -1.000000 -0.000001
vn 0.000000 1.000000 0.000000
vn 0.000000 1.000000 0.000000
vn 0.000000 1.000000 0.000000
vn 0.000000 1.000000 0.000000
vn 0.000000 -1.000000 -0.000002
vn 0.000000 -1.000000 -0.000002
vn 0.000000 -1.000000 -0.000002
vn 0.000000 -1.000000 -0.000002
vn 0.000000 1.000000 -0.000000
vn 0.000000 1.000000 -0.000000
vn 0.000000 1.000000 -0.000000
vn 0.000000 1.000000 -0.000000
vn 0.000000 -1.000000 0.000001
vn 0.000000 -1.000000 0.000001
vn 0.000000 -1.000000 0.000001
vn 0.000000 -1.000000 0.000001
vn 0.000000 1.000000 0.000000
vn 0.000000 1.000000 0.000000
vn 0.000000 1.000000 0.000000
vn 0.000000 1.000000 0.000000
vn 0.000000 -1.000000 -0.000001
vn 0.000000 -1.000000 -0.000001
vn 0.000000 -1.000000 -0.000001
vn 0.000000 -1.000000 -0.000001
vn 0.000000 1.000000 0.000000
vn 0.000000 1.000000 0.000000
vn 0.000000 1.000000 0.000000
vn 0.000000 1.000000 0.000000
vn 0.000000 -1.000000 0.000001
vn 0.000000 -1.000000 0.000001
vn 0.000000 -1.000000 0.000001
vn 0.000000 -1.000000 0.000001
vn 0.000000 1.000000 0.000000
vn 0.000000 1.000000 0.000000
vn 0.000000 1.000000 0.000000
vn 0.000000 1.000000 0.000000
vn 0.000000 -1.000000 -0.000001
vn 0.000000 -1.000000 -0.000001
vn 0.000000 -1.000000 -0.000001
vn 0.000000 -1.000000 -0.000001
vn 0.000000 1.000000 0.000000
vn 0.000000 1.000000 0.000000
vn 0.000000 1.000000 0.000000
vn 0.000000 1.000000 0.000000
vn 0.000000 -1.000000 0.000001
vn 0.000000 -1.000000 0.000001
vn 0.000000 -1.000000 0.000001
vn 0.000000 -1.000000 0.000001
vn 0.000000 1.000000 0.000000
vn 0.000000 1.000000 0.000000
vn 0.000000 1.000000 0.000000
vn 0.000000 1.000000 0.000000
vn 0.000000 -1.000000 0.000002
vn 0.000000 -1.000000 0.000002
vn 0.000000 -1.000000 0.000002
vn 0.000000 -1.000000 0.000002
vn 0.000000 1.000000 0.000000
vn 0.000000 1.000000 0.000000
vn 0.000000 1.000000 0.000000
vn 0.000000 1.000000 0.000000
vn 0.000000 -1.000000 -0.000001
vn 0.000000 -1.000000 -0.000001
vn 0.000000 -1.000000 -0.000001
vn 0.000000 -1.000000 -0.000001
vn 0.000000 1.000000 0.000000
vn 0.000000 1.000000 0.000000
vn 0.000000 1.000000 0.000000
vn 0.000000 1.000000 0.000000
vn 0.000000 -1.000000 0.000001
vn 0.000000 -1.000000 0.000001
vn 0.000000 -1.000000 0.000001
vn 0.000000 -1.000000 0.000001
vn 0.000000 1.000000 0.000000
vn 0.000000 1.000000 0.000000
vn 0.000000 1.000000 0.000000
vn 0.000000 1.000000 0.000000
vn 0.000000 -1.000000 -0.000001
vn 0.000000 -1.000000 -0.000001
vn 0.000000 -1.000000 -0.000001
vn 0.000000 -1.000000 -0.000001
vn 0.000000 1.000000 0.000000
vn 0.000000 1.000000 0.000000
vn 0.000000 1.000000 0.000000
vn 0.000000 1.000000 0.000000
vn 0.965926 0.000000 -0.258820
vn 0.965926 0.000000 -0.258820
vn 0.965926 0.000000 -0.258820
vn 0.965926 0.000000 -0.258820
vn 0.965926 0.000000 0.258820
vn 0.965926 0.000000 0.258820
vn 0.965926 0.000000 0.258820
vn 0.965926 0.000000 0.258820
vn 0.707108 0.000000 0.707106
vn 0.707108 0.000000 0.707106
vn 0.707108 0.000000 0.707106
vn 0.707108 0.000000 0.707106
vn 0.258818 0.000000 0.965926
vn 0.258818 0.000000 0.965926
vn 0.258818 0.000000 0.965926
vn 0.258818 0.000000 0.965926
vn -0.258817 -0.000000 0.965926
vn -0.707107 0.000000 0.707106
vn -0.707107 0.000000 0.707106
vn -0.965926 0.000000 0.258819
vn -0.965926 0.000000 0.258819
vn -0.965926 0.000000 -0.258820
vn -0.965926 0.000000 -0.258820
vn -0.707110 0.000000 -0.707104
vn -0.707110 0.000000 -0.707104
vn -0.258818 0.000000 -0.965926
vn -0.258818 0.000000 -0.965926
vn 0.258818 -0.000000 -0.965926
vn 0.258818 0.000000 -0.965926
vn 0.258818 -0.000000 -0.965926
vn 0.258818 -0.000000 -0.965926
vn 0.707108 0.000000 -0.707105
vn 0.707108 0.000000 -0.707105
vn 0.707109 0.000000 -0.707105
vn 0.707109 0.000000 -0.707105
vn 0.984586 0.000000 -0.174900
vn 0.984586 0.000000 -0.174900
vn 0.984586 0.000000 -0.174900
vn 0.984586 0.000000 -0.174900
vn 0.984586 0.000000 0.174900
vn 0.984586 0.000000 0.174900
vn 0.984586 0.000000 0.174900
vn 0.984586 0.000000 0.174900
vn 0.833477 0.000000 0.552554
vn 0.833477 0.000000 0.552554
vn 0.833477 0.000000 0.552554
vn 0.833477 0.000000 0.552554
vn 0.374726 0.000000 0.927136
vn 0.374726 0.000000 0.927136
vn 0.374726 0.000000 0.927136
vn 0.374726 0.000000 0.927136
vn -0.258817 -0.000000 0.965926
vn 0.833478 0.000000 -0.552552
vn 0.833478 0.000000 -0.552552
vn 0.833478 0.000000 -0.552552
vn 0.833478 0.000000 -0.552552
vn -0.258817 -0.000000 0.965926
vn -0.258817 -0.000000 0.965926
vn -0.707108 0.000000 0.707106
vn -0.707108 0.000000 0.707106
vn -0.965926 0.000000 0.258819
vn -0.965926 0.000000 0.258819
vn -0.965926 0.000000 -0.258820
vn -0.965926 0.000000 -0.258820
vn -0.707110 0.000000 -0.707104
vn -0.707110 0.000000 -0.707104
vn -0.258817 0.000000 -0.965926
vn -0.258817 0.000000 -0.965926
vn 0.603916 0.777381 0.175966
vn 0.603916 0.777381 0.175966
vn 0.603916 0.777381 0.175966
vn 0.603916 0.777381 0.175966
vn 0.716763 -0.693377 0.074019
vn 0.716763 -0.693377 0.074019
vn 0.716763 -0.693377 0.074019
vn 0.716763 -0.693377 0.074019
vn 0.622008 0.705467 0.339739
vn 0.622008 0.705467 0.339739
vn 0.622008 0.705467 0.339739
vn 0.622008 0.705467 0.339739
vn 0.708726 -0.698362 -0.099988
vn 0.708726 -0.698362 -0.099988
vn 0.708726 -0.698362 -0.099988
vn 0.708726 -0.698362 -0.099988
vn 0.612210 0.536366 0.580956
vn 0.612210 0.536366 0.580956
vn 0.612210 0.536366 0.580956
vn 0.612210 0.536366 0.580956
vn 0.807230 -0.581526 -0.101031
vn 0.807230 -0.581526 -0.101031
vn 0.807230 -0.581526 -0.101031
vn 0.807230 -0.581526 -0.101031
vn 0.333664 0.438984 0.834243
vn 0.333664 0.438984 0.834243
vn 0.333664 0.438984 0.834243
vn 0.333664 0.438984 0.834243
vn 0.812747 -0.437837 0.384371
vn 0.812747 -0.437837 0.384371
vn 0.812747 -0.437837 0.384371
vn 0.812747 -0.437837 0.384371
vn 0.597409 0.000000 0.801937
vn 0.597409 0.000000 0.801937
vn 0.597409 0.000000 0.801937
vn 0.597409 0.000000 0.801937
vn 0.620088 0.780251 -0.081851
vn 0.620088 0.780251 -0.081851
vn 0.620088 0.780251 -0.081851
vn 0.620088 0.780251 -0.081851
vn 1.000000 0.000000 0.000000
vn 1.000000 0.000000 0.000000
vn 1.000000 0.000000 0.000000
vn 1.000000 0.000000 0.000000
vn 0.815710 -0.574671 0.066104
vn 0.815710 -0.574671 0.066104
vn 0.815710 -0.574671 0.066104
vn 0.815710 -0.574671 0.066104
s off
g pCylinder17 Boss
usemtl lambert3SG
f 39/66/1 40/67/2 41/68/3 42/69/4
f 40/67/5 43/70/6 44/71/7 41/68/8
f 43/70/9 45/72/10 46/73/11 44/71/12
f 45/72/13 47/74/14 48/75/15 46/73/16
f 47/74/17 49/76/18 50/77/19 48/75/20
f 49/76/21 51/78/22 52/79/23 50/77/24
f 51/78/25 53/80/26 54/81/27 52/79/28
f 53/80/29 55/82/30 56/83/31 54/81/32
f 55/82/33 57/84/34 58/85/35 56/83/36
f 57/84/37 59/86/38 60/87/39 58/85/40
f 59/86/41 61/88/42 62/89/43 60/87/44
f 61/88/45 39/90/46 42/91/47 62/89/48
s 1
f 2/2/49 1/1/50 25/51/51
f 3/3/52 2/2/49 25/51/51
f 4/4/53 3/3/52 25/51/51
f 5/5/54 4/4/53 25/51/51
f 6/6/55 5/5/54 25/51/51
f 7/7/56 6/6/55 25/51/51
f 8/8/57 7/7/56 25/51/51
f 9/9/58 8/8/57 25/51/51
f 10/10/59 9/9/58 25/51/51
f 11/11/60 10/10/59 25/51/51
f 12/12/61 11/11/60 25/51/51
f 1/1/50 12/12/61 25/51/51
s 2
f 13/49/62 14/48/63 26/52/64
f 14/48/63 15/47/65 26/52/64
f 15/47/65 16/46/66 26/52/64
f 16/46/66 17/45/67 26/52/64
f 17/45/67 18/44/68 26/52/64
f 18/44/68 19/43/69 26/52/64
f 19/43/69 20/42/70 26/52/64
f 20/42/70 21/41/71 26/52/64
f 21/41/71 22/40/72 26/52/64
f 22/40/72 23/39/73 26/52/64
f 23/39/73 24/50/74 26/52/64
f 24/50/74 13/49/62 26/52/64
s off
f 28/55/75 27/53/76 75/105/77 76/107/78
f 29/56/79 28/55/80 76/107/81 77/108/82
f 30/57/83 29/56/84 77/108/85 78/109/86
f 31/58/87 30/57/88 78/109/89 79/110/90
s 3
f 32/59/91 31/58/92 79/110/93 87/118/94 68/98/95
s 4
f 33/60/96 32/59/97 68/98/98 69/99/99
s 5
f 34/61/100 33/60/101 69/99/102 70/100/103
s 6
f 35/62/104 34/61/105 70/100/106 71/101/107
s 7
f 36/63/108 35/62/109 71/101/110 72/102/111
s 8
f 37/64/112 36/63/113 72/102/114 73/103/115
s 9
f 38/65/116 37/64/117 73/103/118 88/119/119 80/111/120
s off
f 27/54/121 38/65/122 80/111/123 75/106/124
f 1/13/125 2/14/126 40/67/127 39/66/128
f 38/65/129 27/54/130 42/69/131 41/68/132
f 2/14/133 3/15/134 43/70/135 40/67/136
f 37/64/137 38/65/138 41/68/139 44/71/140
f 3/15/141 4/16/142 45/72/143 43/70/144
f 36/63/145 37/64/146 44/71/147 46/73/148
f 4/16/149 5/17/150 47/74/151 45/72/152
f 35/62/153 36/63/154 46/73/155 48/75/156
f 5/17/157 6/18/158 49/76/159 47/74/160
f 34/61/161 35/62/162 48/75/163 50/77/164
f 6/18/165 7/19/166 51/78/167 49/76/168
f 33/60/169 34/61/170 50/77/171 52/79/172
f 7/19/173 8/20/174 53/80/175 51/78/176
f 32/59/177 33/60/178 52/79/179 54/81/180
f 8/20/181 9/21/182 55/82/183 53/80/184
f 31/58/185 32/59/186 54/81/187 56/83/188
f 9/21/189 10/22/190 57/84/191 55/82/192
f 30/57/193 31/58/194 56/83/195 58/85/196
f 10/22/197 11/23/198 59/86/199 57/84/200
f 29/56/201 30/57/202 58/85/203 60/87/204
f 11/23/205 12/24/206 61/88/207 59/86/208
f 28/55/209 29/56/210 60/87/211 62/89/212
f 12/24/213 1/25/214 39/90/215 61/88/216
f 27/53/217 28/55/218 62/89/219 42/91/220
f 64/94/221 63/92/222 13/38/223 24/37/224
f 65/95/225 64/94/226 24/37/227 23/36/228
f 66/96/229 65/95/230 23/36/231 22/35/232
f 67/97/233 66/96/234 22/35/235 21/34/236
s 3
f 68/98/95 87/118/94 81/112/237
s 4
f 69/99/99 68/98/98 81/112/238 82/113/239
s 5
f 70/100/103 69/99/102 82/113/240 83/114/241
s 6
f 71/101/107 70/100/106 83/114/242 84/115/243
s 7
f 72/102/111 71/101/110 84/115/244 85/116/245
s 8
f 73/103/115 72/102/114 85/116/246 86/117/247
s 9
f 74/104/248 88/119/119 86/117/249 15/28/250 14/27/251
s off
f 63/93/252 74/104/253 14/27/254 13/26/255
f 90/120/256 89/121/257 91/122/258 92/123/259
f 93/124/260 90/120/261 92/123/262 94/125/263
f 95/126/264 93/124/265 94/125/266 96/127/267
f 97/128/268 95/126/269 96/127/270 98/129/271
s 3
f 87/118/94 79/110/93 67/97/272
s 9
f 80/111/120 88/119/119 74/104/248
s off
f 89/130/273 99/131/274 100/132/275 91/133/276
s 3
f 81/112/237 87/118/94 67/97/272 21/34/277 20/33/278
s 4
f 82/113/239 81/112/238 20/33/279 19/32/280
s 5
f 83/114/241 82/113/240 19/32/281 18/31/282
s 6
f 84/115/243 83/114/242 18/31/283 17/30/284
s 7
f 85/116/245 84/115/244 17/30/285 16/29/286
s 8
f 86/117/247 85/116/246 16/29/287 15/28/288
s 9
f 86/117/249 88/119/119 73/103/118
s off
f 76/107/289 75/105/290 89/121/291 90/120/292
f 63/92/293 64/94/294 92/123/295 91/122/296
f 77/108/297 76/107/298 90/120/299 93/124/300
f 64/94/301 65/95/302 94/125/303 92/123/304
f 78/109/305 77/108/306 93/124/307 95/126/308
f 65/95/309 66/96/310 96/127/311 94/125/312
f 79/110/313 78/109/314 95/126/315 97/128/316
f 66/96/317 67/97/318 98/129/319 96/127/320
f 67/97/321 79/110/322 97/128/323 98/129/324
f 75/106/325 80/111/326 99/131/327 89/130/328
f 80/111/329 74/104/330 100/132/331 99/131/332
f 74/104/333 63/93/334 91/133/335 100/132/336
