# This file uses centimeters as units for non-parametric coordinates.

mtllib Rock4.mtl
g default
v -74.768730 4.324253 86.726513
v -65.470688 4.324253 86.726513
v -74.768730 10.100993 86.726513
v -65.470688 13.622294 86.726513
v -74.768730 10.807106 77.428470
v -65.470688 9.356056 77.428470
v -74.768730 4.324253 77.428470
v -65.470688 4.324253 77.428470
v -70.119709 4.324253 86.726513
v -70.119709 13.622295 86.726513
v -70.119709 10.680215 77.428470
v -70.119709 4.324253 77.428470
v -74.768730 13.622295 82.077491
v -74.768730 4.324253 82.077491
v -65.470688 4.324253 82.077491
v -65.470688 13.622295 82.077491
v -70.119709 13.622295 82.077491
v -70.119709 13.156214 81.340998
vt 0.375000 0.000000
vt 0.625000 0.000000
vt 0.375000 0.250000
vt 0.625000 0.250000
vt 0.375000 0.500000
vt 0.625000 0.500000
vt 0.375000 0.750000
vt 0.625000 0.750000
vt 0.375000 1.000000
vt 0.625000 1.000000
vt 0.875000 0.000000
vt 0.875000 0.250000
vt 0.125000 0.000000
vt 0.125000 0.250000
vt 0.500000 0.000000
vt 0.500000 1.000000
vt 0.500000 0.250000
vt 0.500000 0.500000
vt 0.500000 0.750000
vt 0.250000 0.250000
vt 0.375000 0.375000
vt 0.250000 0.000000
vt 0.375000 0.875000
vt 0.625000 0.875000
vt 0.750000 0.000000
vt 0.625000 0.375000
vt 0.750000 0.250000
vt 0.500000 0.375000
vt 0.500000 0.394802
vn 0.000000 0.000000 1.000000
vn 0.000000 0.000000 1.000000
vn 0.000000 0.000000 1.000000
vn 0.000000 0.000000 1.000000
vn 0.064931 0.940455 -0.333659
vn 0.000985 0.983010 -0.183550
vn -0.146994 0.978154 0.146994
vn 0.000000 1.000000 0.000000
vn 0.000000 -0.000000 -1.000000
vn 0.000000 -0.000000 -1.000000
vn -0.000000 0.000000 -1.000000
vn -0.000000 0.000000 -1.000000
vn 0.000000 -1.000000 0.000000
vn 0.000000 -1.000000 0.000000
vn 0.000000 -1.000000 0.000000
vn 0.000000 -1.000000 0.000000
vn 0.000000 -1.000000 0.000000
vn 1.000000 0.000000 0.000000
vn 1.000000 0.000000 0.000000
vn 1.000000 0.000000 0.000000
vn 1.000000 0.000000 0.000000
vn -1.000000 0.000000 0.000000
vn -1.000000 0.000000 0.000000
vn -1.000000 0.000000 0.000000
vn -1.000000 0.000000 0.000000
vn 0.000000 -0.000000 -1.000000
vn 0.000000 -0.000000 -1.000000
vn -0.516875 0.682408 0.516875
vn -0.198772 0.974776 -0.101500
vn 0.000000 0.000000 1.000000
vn 0.000000 0.000000 1.000000
vn -1.000000 0.000000 0.000000
vn -1.000000 0.000000 0.000000
vn 0.000000 -1.000000 0.000000
vn 0.000000 -1.000000 0.000000
vn 0.000000 -1.000000 0.000000
vn 1.000000 0.000000 0.000000
vn 1.000000 0.000000 0.000000
vn 0.093832 0.799446 -0.593364
vn 0.063276 0.818899 -0.570439
vn 0.120622 0.779899 -0.614172
vn 0.011576 0.850165 -0.526389
s 1
g pCube27 Boss
usemtl lambert4SG
f 10/17/1 9/15/2 2/2/3 4/4/4
s 2
f 16/26/5 17/28/6 10/17/7 4/4/8
s 3
f 12/19/9 11/18/10 6/6/11 8/8/12
s 4
f 14/23/13 15/24/14 2/10/15 9/16/16 1/9/17
s 5
f 2/2/18 15/25/19 16/27/20 4/4/21
s 6
f 13/20/22 14/22/23 1/1/24 3/3/25
s 3
f 5/5/26 11/18/10 12/19/9 7/7/27
s 2
f 3/3/28 10/17/7 13/21/29
s 1
f 1/1/30 9/15/2 10/17/1 3/3/31
s 6
f 7/13/32 14/22/23 13/20/22 5/14/33
s 4
f 7/7/34 12/19/35 8/8/36 15/24/14 14/23/13
s 5
f 16/27/20 15/25/19 8/11/37 6/12/38
s 2
f 11/18/39 18/29/40 16/26/5 6/6/41
f 5/5/42 18/29/40 11/18/39
f 13/21/29 17/28/6 18/29/40 5/5/42
f 16/26/5 18/29/40 17/28/6
f 13/21/29 10/17/7 17/28/6
