# This file uses centimeters as units for non-parametric coordinates.

mtllib Rock3.mtl
g default
v -74.768730 4.324253 58.810178
v -65.470688 4.324253 58.810178
v -73.951247 12.551723 61.894402
v -65.470688 13.622294 58.810178
v -74.768730 10.807103 49.512135
v -67.358996 10.939481 52.020053
v -74.768730 4.324253 49.512136
v -67.168258 4.257336 49.770000
v -70.119709 4.324253 58.810178
v -69.789855 14.151642 59.304921
v -70.119709 10.680216 49.512136
v -70.119709 4.324253 49.512136
v -74.768730 13.622296 54.161157
v -74.768730 4.324253 54.161157
v -65.470688 4.324253 54.161157
v -65.470688 13.622295 54.161157
v -72.044989 14.952710 55.108512
v -70.119709 13.156215 53.424664
v -74.768730 6.103997 58.810178
v -74.768730 7.188868 54.161157
v -74.768730 6.321541 49.512136
v -70.119709 6.282449 49.512136
v -67.075147 6.438495 49.820236
v -65.470688 7.188868 54.161157
v -66.186961 7.954789 57.620766
v -70.119709 7.188868 58.810178
vt 0.375000 0.000000
vt 0.625000 0.000000
vt 0.375000 0.250000
vt 0.625000 0.250000
vt 0.375000 0.500000
vt 0.625000 0.500000
vt 0.375000 0.750000
vt 0.625000 0.750000
vt 0.375000 1.000000
vt 0.625000 1.000000
vt 0.875000 0.000000
vt 0.875000 0.250000
vt 0.125000 0.000000
vt 0.125000 0.250000
vt 0.500000 0.000000
vt 0.500000 1.000000
vt 0.500000 0.250000
vt 0.500000 0.500000
vt 0.500000 0.750000
vt 0.250000 0.250000
vt 0.375000 0.375000
vt 0.250000 0.000000
vt 0.375000 0.875000
vt 0.625000 0.875000
vt 0.750000 0.000000
vt 0.625000 0.375000
vt 0.750000 0.250000
vt 0.500000 0.375000
vt 0.500000 0.394802
vt 0.375000 0.077022
vt 0.250000 0.077022
vt 0.125000 0.077022
vt 0.375000 0.672978
vt 0.500000 0.672978
vt 0.625000 0.672978
vt 0.875000 0.077022
vt 0.750000 0.077022
vt 0.625000 0.077022
vt 0.500000 0.077022
vn 0.178437 -0.043014 0.983011
vn 0.232901 -0.123933 0.964571
vn 0.067929 0.110243 0.991581
vn 0.117962 0.191442 0.974390
vn 0.191430 0.965089 -0.178766
vn -0.027918 0.979997 -0.197044
vn 0.013789 0.995358 0.095252
vn 0.173874 0.983750 0.044762
vn 0.038261 0.004066 -0.999260
vn 0.130846 0.067951 -0.989071
vn 0.327529 0.171870 -0.929078
vn 0.093821 0.009972 -0.995539
vn -0.001899 -0.999996 0.001899
vn -0.001634 -0.999997 0.001634
vn 0.000000 -1.000000 0.000000
vn 0.000000 -1.000000 0.000000
vn 0.000000 -1.000000 0.000000
vn 0.989508 0.123000 0.075790
vn 0.989967 0.060683 -0.127607
vn 0.983382 0.045371 -0.175789
vn 0.996026 -0.007830 0.088723
vn -0.997633 0.036168 0.058490
vn -0.999055 0.022863 0.036974
vn -1.000000 0.000000 0.000000
vn -1.000000 0.000000 0.000000
vn 0.000000 -0.000000 -1.000000
vn 0.000000 0.000000 -1.000000
vn -0.266089 0.950622 0.159730
vn -0.118773 0.919703 -0.374218
vn 0.000000 0.000000 1.000000
vn 0.238491 -0.185603 0.953244
vn -1.000000 0.000000 0.000000
vn -1.000000 0.000000 -0.000000
vn -0.004021 -0.999984 0.004021
vn -0.004021 -0.999984 0.004021
vn -0.004021 -0.999984 0.004021
vn 0.898128 0.053760 -0.436436
vn 0.935694 -0.013756 -0.352545
vn 0.111032 0.792699 -0.599417
vn 0.078043 0.767120 -0.636738
vn 0.225010 0.705836 -0.671690
vn 0.000872 0.821645 -0.569999
vn -0.998174 0.031771 0.051379
vn -0.996238 0.045577 0.073706
vn -1.000000 0.000000 -0.000000
vn 0.000000 -0.000000 -1.000000
vn 0.178692 0.100426 -0.978767
vn 0.411195 0.231094 -0.881768
vn 0.996269 -0.013092 -0.085298
vn 0.843604 0.126869 -0.521763
vn 0.993228 -0.068046 0.094164
vn 0.275611 -0.208863 0.938304
vn 0.201844 -0.145860 0.968496
vn 0.346224 -0.269445 0.898626
s 1
g pCube30 Boss
usemtl lambert4SG
f 25/38/1 26/39/2 9/15/3 2/2/4
s 2
f 16/26/5 17/28/6 10/17/7 4/4/8
s 3
f 12/19/9 22/34/10 23/35/11 8/8/12
s 4
f 14/23/13 15/24/14 2/10/15 9/16/16 1/9/17
s 5
f 2/2/18 15/25/19 24/37/20 25/38/21
s 6
f 19/30/22 20/31/23 14/22/24 1/1/25
s 3
f 21/33/26 22/34/10 12/19/9 7/7/27
s 2
f 3/3/28 10/17/7 13/21/29
s 1
f 1/1/30 9/15/3 26/39/2 19/30/31
s 6
f 7/13/32 14/22/24 20/31/23 21/32/33
s 4
f 7/7/34 12/19/35 8/8/36 15/24/14 14/23/13
s 5
f 23/36/37 24/37/20 15/25/19 8/11/38
s 2
f 11/18/39 18/29/40 16/26/5 6/6/41
f 5/5/42 18/29/40 11/18/39
f 13/21/29 17/28/6 18/29/40 5/5/42
f 16/26/5 18/29/40 17/28/6
f 13/21/29 10/17/7 17/28/6
s 6
f 13/20/43 20/31/23 19/30/22 3/3/44
f 21/32/33 20/31/23 13/20/43 5/14/45
s 3
f 5/5/46 11/18/47 22/34/10 21/33/26
f 23/35/11 22/34/10 11/18/47 6/6/48
s 5
f 16/27/49 24/37/20 23/36/37 6/12/50
f 25/38/21 24/37/20 16/27/49 4/4/51
s 1
f 10/17/52 26/39/2 25/38/1 4/4/53
f 19/30/31 26/39/2 10/17/52 3/3/54
