# This file uses centimeters as units for non-parametric coordinates.

mtllib Rock2.mtl
g default
v 35.829940 5.066391 114.725918
v 29.016218 4.264877 121.001613
v 24.566021 4.932672 102.479243
v 10.886201 4.049648 101.289788
v 25.254663 12.339854 103.319220
v 18.564485 13.411533 110.822019
v 30.086627 13.720054 111.923856
v 28.375873 13.528008 121.489431
v 32.423079 4.665634 117.863765
v 14.293060 4.450405 98.151938
v 19.389403 13.781638 104.876959
v 30.963635 14.643280 118.553200
v 19.517047 9.846487 98.278659
v 34.684556 9.301777 114.011247
v 28.696045 8.896443 121.245522
v 10.566027 8.681213 101.533696
v 13.972887 9.081970 98.395847
v 14.830966 9.826487 99.422578
vt 0.375000 0.000000
vt 0.625000 0.000000
vt 0.375000 0.250000
vt 0.625000 0.250000
vt 0.375000 0.500000
vt 0.625000 0.500000
vt 0.375000 0.750000
vt 0.625000 0.750000
vt 0.375000 1.000000
vt 0.625000 1.000000
vt 0.875000 0.000000
vt 0.875000 0.250000
vt 0.125000 0.000000
vt 0.125000 0.250000
vt 0.500000 0.000000
vt 0.500000 1.000000
vt 0.500000 0.250000
vt 0.500000 0.500000
vt 0.500000 0.750000
vt 0.250000 0.250000
vt 0.375000 0.375000
vt 0.250000 0.000000
vt 0.375000 0.875000
vt 0.625000 0.875000
vt 0.750000 0.000000
vt 0.625000 0.375000
vt 0.750000 0.250000
vt 0.500000 0.375000
vt 0.500000 0.394802
vn 0.068869 -0.996245 -0.052465
vn 0.068869 -0.996245 -0.052465
vn 0.068869 -0.996245 -0.052465
vn 0.068869 -0.996245 -0.052465
vn -0.618639 0.687821 -0.379721
vn -0.396976 0.418277 -0.816979
vn -0.210541 -0.156370 -0.964998
vn -0.676937 -0.008036 -0.735997
vn -0.059574 0.998222 -0.001691
vn -0.000511 0.998110 -0.061444
vn -0.161246 0.981607 0.102212
vn -0.161246 0.981607 0.102212
vn 0.801907 0.223571 0.554041
vn 0.814981 0.234704 0.529830
vn 0.710320 0.153870 0.686854
vn 0.710320 0.153870 0.686854
vn 0.710320 0.153870 0.686854
vn -0.732813 -0.086202 0.674948
vn -0.732813 -0.086202 0.674948
vn -0.732813 -0.086202 0.674948
vn -0.732813 -0.086202 0.674948
vn 0.735873 0.130333 -0.664458
vn 0.733936 0.129341 -0.666790
vn 0.722275 0.123418 -0.680505
vn 0.722275 0.123418 -0.680505
vn 0.135818 0.970811 -0.197688
vn 0.135818 0.970811 -0.197688
vn 0.377993 -0.345770 -0.858816
vn 0.118991 0.475116 -0.871841
vn 0.068869 -0.996245 -0.052465
vn 0.068869 -0.996245 -0.052465
vn 0.762111 0.144037 -0.631221
vn 0.762111 0.144037 -0.631221
vn 0.874838 0.293190 0.385614
vn 0.874838 0.293190 0.385614
vn 0.874838 0.293190 0.385614
vn -0.732813 -0.086202 0.674948
vn -0.732813 -0.086202 0.674948
vn -0.337798 0.900275 -0.274587
vn -0.297835 0.911291 -0.284331
vn -0.460404 0.878782 -0.125581
vn -0.019499 0.853776 -0.520276
s 1
g pCube31 Boss
usemtl lambert4SG
f 10/17/1 9/15/2 2/2/3 4/4/4
s 2
f 16/26/5 17/28/6 10/17/7 4/4/8
s 3
f 12/19/9 11/18/10 6/6/11 8/8/12
s 4
f 14/23/13 15/24/14 2/10/15 9/16/16 1/9/17
s 5
f 2/2/18 15/25/19 16/27/20 4/4/21
s 6
f 13/20/22 14/22/23 1/1/24 3/3/25
s 3
f 5/5/26 11/18/10 12/19/9 7/7/27
s 2
f 3/3/28 10/17/7 13/21/29
s 1
f 1/1/30 9/15/2 10/17/1 3/3/31
s 6
f 7/13/32 14/22/23 13/20/22 5/14/33
s 4
f 7/7/34 12/19/35 8/8/36 15/24/14 14/23/13
s 5
f 16/27/20 15/25/19 8/11/37 6/12/38
s 2
f 11/18/39 18/29/40 16/26/5 6/6/41
f 5/5/42 18/29/40 11/18/39
f 13/21/29 17/28/6 18/29/40 5/5/42
f 16/26/5 18/29/40 17/28/6
f 13/21/29 10/17/7 17/28/6
